<svg width="28" height="28" viewBox="0 0 28 28" fill="none" xmlns="http://www.w3.org/2000/svg">
<path d="M0.109375 14.02C0.109375 6.3454 6.32538 0.129395 14 0.129395C20.4752 0.129395 25.9125 4.55471 27.4533 10.5474H22.1891C21.9854 10.1918 21.7429 9.85995 21.4662 9.55774C21.6051 9.21036 22.0911 7.78652 21.3273 5.87661C21.3273 5.87661 20.1639 5.49446 17.5074 7.30024C16.3962 6.98786 15.2154 6.83146 14.0348 6.83146C12.8542 6.83146 11.6734 6.98786 10.5621 7.30024C7.90562 5.51196 6.74231 5.87661 6.74231 5.87661C5.97822 7.7863 6.4645 9.21036 6.60341 9.55774C5.71791 10.5301 5.17956 11.7802 5.17956 13.2909C5.17956 17.0221 6.77228 18.7238 8.79113 19.5268V22.3616C8.02725 22.2995 7.20213 21.9259 6.56862 20.8614C6.30831 20.4447 5.52694 19.4203 4.43297 19.4374C3.26966 19.4549 3.96419 20.0973 4.45047 20.3579C5.04066 20.6877 5.71791 21.9204 5.87409 22.3201C6.09809 22.9496 6.72787 24.0416 8.79113 24.1055V26.8983C3.69819 24.837 0.109594 19.8598 0.109594 14.0202L0.109375 14.02Z" fill="#24292E"/>
<path d="M27.3375 13.9709L24.1177 12.4206C23.9359 12.333 23.7313 12.3042 23.5323 12.338C23.3334 12.3718 23.1498 12.4666 23.0071 12.6094L12.9009 21.3517C12.8339 21.4128 12.7804 21.4872 12.7438 21.5701C12.7073 21.653 12.6884 21.7427 12.6885 21.8333C12.6885 21.9239 12.7075 22.0136 12.7442 22.0965C12.7809 22.1793 12.8345 22.2536 12.9015 22.3146L14.6305 23.9655C14.7431 24.0677 14.8878 24.1272 15.0396 24.134C15.1914 24.1407 15.3408 24.0942 15.462 24.0025L24.4178 17.0585L26.5281 14.7314C26.7443 14.493 26.9875 14.2104 27.3075 14.2436C27.6164 14.276 27.8905 14.5302 27.8905 14.8881V14.8509C27.8904 14.667 27.8384 14.487 27.7406 14.3313C27.6428 14.1756 27.5031 14.0507 27.3375 13.9709Z" fill="url(#paint0_linear_236_307)"/>
<path d="M27.3376 26.2238L24.1178 27.7741C23.936 27.8616 23.7314 27.8905 23.5325 27.8567C23.3335 27.8228 23.15 27.728 23.0072 27.5853L12.901 17.975C12.834 17.9139 12.7805 17.8395 12.7439 17.7565C12.7073 17.6736 12.6884 17.5839 12.6885 17.4932C12.6885 17.4026 12.7075 17.3129 12.7442 17.23C12.7809 17.1471 12.8346 17.0728 12.9017 17.0118L14.6307 15.3611C14.7432 15.259 14.8879 15.1993 15.0397 15.1925C15.1915 15.1858 15.3409 15.2322 15.4621 15.3239L24.418 23.1361L26.5282 25.4634C26.7444 25.7019 26.9876 25.9845 27.3077 25.9512C27.6167 25.9186 27.8906 25.6645 27.8906 25.3066V25.344C27.8905 25.5278 27.8385 25.7079 27.7407 25.8636C27.6429 26.0192 27.5032 26.1439 27.3376 26.2238Z" fill="url(#paint1_linear_236_307)"/>
<path d="M24.1176 27.7747C23.9358 27.8623 23.7311 27.8911 23.5321 27.8573C23.3331 27.8234 23.1495 27.7285 23.0068 27.5857C23.3673 27.946 24.4178 27.6907 24.4178 27.181V13.0144C24.4178 12.5047 23.3673 12.2494 23.0068 12.6097C23.1496 12.4669 23.3331 12.372 23.5322 12.3382C23.7312 12.3044 23.9358 12.3333 24.1176 12.4209L27.337 13.535C27.5027 13.6148 27.6425 13.7397 27.7404 13.8954C27.8382 14.051 27.8903 14.2311 27.8904 14.415V25.7804C27.8904 26.1558 27.6752 26.4979 27.337 26.6606L24.1176 27.7747Z" fill="url(#paint2_linear_236_307)"/>
<defs>
<linearGradient id="paint0_linear_236_307" x1="20.2893" y1="12.3237" x2="20.2893" y2="24.1342" gradientUnits="userSpaceOnUse">
<stop stop-color="#0196CA"/>
<stop offset="1" stop-color="#0065A9"/>
</linearGradient>
<linearGradient id="paint1_linear_236_307" x1="20.2894" y1="15.1922" x2="20.2894" y2="27.8709" gradientUnits="userSpaceOnUse">
<stop stop-color="#01A7DE"/>
<stop offset="1" stop-color="#007ACC"/>
</linearGradient>
<linearGradient id="paint2_linear_236_307" x1="25.4498" y1="12.3238" x2="25.4498" y2="27.8709" gradientUnits="userSpaceOnUse">
<stop stop-color="#2EC2F6"/>
<stop offset="1" stop-color="#1F9CF0"/>
</linearGradient>
</defs>
</svg>
