<svg width="32" height="32" viewBox="0 0 32 32" fill="none" xmlns="http://www.w3.org/2000/svg">
<path fill-rule="evenodd" clip-rule="evenodd" d="M20.7008 8.55753C20.0498 6.53053 19.0055 4.73653 17.534 3.19278C17.162 2.80228 16.7485 2.44453 16.489 1.95878C16.325 1.65128 16.1688 1.33953 16.009 1.03003L15.9075 0.77478L15.8793 0.87528C15.866 1.38028 15.58 1.72253 15.224 2.04228C14.823 2.40178 14.45 2.79228 14.065 3.16953L12.881 4.72678L11.9238 6.48728L11.2835 8.21603L11.2643 8.24278C10.912 9.40003 10.7383 10.59 10.653 11.7915C10.6208 12.2433 10.6578 12.7013 10.683 13.1553C10.7193 13.8043 10.832 14.442 11.001 15.0703C11.6153 17.3518 12.862 19.244 14.5668 20.852C14.8833 21.1508 15.2255 21.4225 15.5558 21.7065L15.702 22.2085L15.838 22.9875L15.903 23.8008C15.9023 23.9658 15.8955 24.1315 15.9053 24.296C15.908 24.3383 15.963 24.3773 15.994 24.4178L16.27 24.5148L16.5573 24.6265L16.508 23.9038L16.5058 23.1918L16.605 22.1073L16.677 21.8713L16.8833 21.506C17.1378 21.3015 17.4105 21.1155 17.6423 20.8878C18.0615 20.476 18.48 20.0585 18.8553 19.6073C19.3434 19.0224 19.7604 18.3815 20.0975 17.6983C20.3223 17.24 20.5343 16.7725 20.7095 16.2938C20.864 15.8718 20.9598 15.428 21.0815 14.9938L21.1135 14.9C21.3648 13.728 21.407 12.544 21.3148 11.3525C21.2405 10.3923 21.0148 9.46553 20.7008 8.55753ZM15.7258 21.1263C15.7643 20.9335 15.812 20.7418 15.8468 20.5483C15.812 20.7418 15.7645 20.9335 15.7258 21.1263ZM26.6185 25.741C26.412 25.3453 26.109 25.0448 25.7085 24.8475C25.373 24.6825 25.0123 24.61 24.6413 24.5995C24.3633 24.5915 24.0843 24.6058 23.8058 24.6093C23.5585 24.6123 23.311 24.6165 23.0638 24.6143C22.773 24.6113 22.4823 24.6025 22.1915 24.5943C22.1433 24.5928 22.109 24.6025 22.0865 24.6515C22.0513 24.7278 22.0095 24.8013 21.9663 24.8848L22.0148 24.9003C22.159 24.9258 22.304 24.9475 22.4475 24.9763C22.632 25.013 22.715 25.119 22.7235 25.2745C22.7357 25.4962 22.7413 25.718 22.7403 25.94C22.7365 26.8185 22.7303 27.697 22.7238 28.5753C22.7233 28.6333 22.7223 28.6938 22.7065 28.7483C22.6883 28.8113 22.6685 28.8928 22.6215 28.9238C22.537 28.9781 22.442 29.0143 22.3428 29.03C22.2025 29.053 22.179 29.0593 22.1353 29.1973L22.1163 29.2663C22.0953 29.3415 22.1065 29.3563 22.185 29.357C22.6355 29.362 23.0858 29.3718 23.536 29.3703C23.9468 29.3688 24.3575 29.3938 24.7668 29.3165C25.1535 29.2438 25.5145 29.1163 25.844 28.9005C26.2715 28.6203 26.579 28.2458 26.7413 27.757C26.8723 27.3623 26.9015 26.9595 26.857 26.5468C26.8294 26.2655 26.7485 25.992 26.6185 25.741ZM25.8293 28.1563C25.5883 28.6048 25.2288 28.9043 24.715 28.9833C24.3933 29.0325 24.071 29.0183 23.7643 28.8965C23.57 28.8195 23.4978 28.6518 23.4918 28.4535C23.4862 28.2592 23.4835 28.0649 23.4835 27.8705C23.4825 27.187 23.4825 26.5036 23.4835 25.8203C23.484 25.605 23.4878 25.3893 23.4913 25.1738C23.4938 25.0223 23.5255 24.9715 23.6733 24.9593C24.3223 24.9048 24.9415 24.9748 25.4558 25.4315C25.7738 25.714 25.9548 26.0743 26.03 26.488C26.0613 26.6605 26.0708 26.837 26.0903 27.012C26.0745 27.4115 26.0205 27.8003 25.8293 28.1563ZM31.2765 27.416C31.1485 27.1045 30.906 26.9093 30.6013 26.7843C30.4973 26.7415 30.39 26.7063 30.2778 26.6648L30.317 26.6398C30.4383 26.562 30.5733 26.4993 30.6778 26.4035C30.9318 26.1708 31.0373 25.878 30.9878 25.5303C30.9408 25.1995 30.7758 24.9568 30.481 24.7993C30.2135 24.6568 29.925 24.6048 29.6265 24.605C29.11 24.6055 28.5933 24.6133 28.0768 24.6143C27.8988 24.6145 27.7208 24.6013 27.5428 24.5988C27.5083 24.5983 27.457 24.607 27.4423 24.63C27.4015 24.6925 27.3745 24.7645 27.3455 24.834C27.3288 24.8745 27.3453 24.8968 27.3915 24.9028C27.5158 24.9198 27.6398 24.941 27.7643 24.9595C27.9363 24.9853 28.0195 25.0748 28.03 25.248L28.0323 25.3508C28.0325 25.8895 28.0343 26.4283 28.032 26.967C28.0288 27.505 28.0237 28.043 28.0168 28.581C28.016 28.6488 28.0068 28.7168 27.997 28.784C27.9823 28.8855 27.928 28.9555 27.824 28.9775L27.5298 29.0355C27.495 29.0425 27.4448 29.0415 27.4305 29.063C27.3765 29.1438 27.333 29.232 27.339 29.3385L27.3693 29.3468L28.3575 29.371L28.5558 29.3703C28.8978 29.3663 29.2403 29.373 29.5818 29.3555C29.9515 29.337 30.2988 29.2273 30.6198 29.0385C30.9615 28.8373 31.2245 28.572 31.318 28.173C31.378 27.9183 31.3783 27.662 31.2765 27.416ZM28.7658 25.1208C28.7673 25.0125 28.815 24.9655 28.9225 24.9628C29.1873 24.9555 29.4503 24.957 29.7058 25.0483C30.0363 25.1663 30.2395 25.4513 30.2358 25.7995C30.234 25.9333 30.236 26.0658 30.1868 26.1943C30.0895 26.4473 29.903 26.5808 29.6385 26.6068C29.5005 26.6208 29.3613 26.6223 29.2383 26.6288L28.8278 26.6108C28.7733 26.6088 28.7495 26.5848 28.7498 26.5288L28.7658 25.1208ZM30.4673 28.4943C30.335 28.782 30.094 28.9333 29.7923 28.9858C29.5518 29.0272 29.3052 29.0164 29.0693 28.954C28.8928 28.9088 28.8208 28.767 28.7855 28.6098C28.7618 28.5045 28.7658 28.3793 28.7638 28.2698C28.7605 28.1008 28.763 27.75 28.763 27.75H28.7595C28.7595 27.5 28.7603 27.2835 28.7588 27.0438C28.7585 26.992 28.7673 26.9663 28.8305 26.9683C29.055 26.975 29.2803 26.9788 29.5048 26.9875C29.7055 26.9953 29.8935 27.0548 30.0703 27.15C30.3393 27.295 30.5013 27.517 30.5458 27.822C30.5798 28.0533 30.5653 28.2808 30.4673 28.4943ZM5.8205 28.7638L5.82525 27.4045C5.826 27.2 5.8 26.9995 5.733 26.8055C5.54825 26.2713 5.03875 26.028 4.50825 26.2198C4.267 26.307 4.05075 26.4393 3.84425 26.5893C3.724 26.6768 3.724 26.6768 3.637 26.552C3.39075 26.199 3.039 26.0783 2.6295 26.2085C2.36475 26.2925 2.13325 26.4363 1.914 26.6033C1.8935 26.6188 1.85225 26.636 1.84 26.6268C1.8195 26.6115 1.80525 26.5753 1.80575 26.548L1.82075 26.3065C1.822 26.2558 1.81225 26.2048 1.80725 26.1515C1.70825 26.1858 1.62925 26.22 1.5465 26.24C1.29075 26.3025 1.03325 26.36 0.776004 26.4188C0.713754 26.433 0.648004 26.4518 0.642004 26.5233C0.635754 26.5935 0.703504 26.6053 0.756004 26.6263C0.866504 26.6711 0.976338 26.7177 1.0855 26.766C1.17725 26.8065 1.2115 26.8798 1.211 26.9783C1.20925 27.3995 1.212 27.8203 1.2095 28.2415C1.2085 28.4128 1.2005 28.5838 1.19275 28.755C1.18575 28.9068 1.134 28.9703 0.987004 29.0085C0.909004 29.029 0.829754 29.0428 0.751254 29.0613C0.734004 29.0653 0.704504 29.0763 0.704254 29.0848C0.701004 29.159 0.697004 29.235 0.709504 29.3073C0.712004 29.3203 0.790504 29.3203 0.834004 29.3253L0.863254 29.3235C1.16625 29.3187 1.46934 29.3145 1.7725 29.311C1.93325 29.3093 2.09375 29.3108 2.26825 29.3108L2.287 29.0683C2.187 29.05 2.09775 29.0363 2.00975 29.017C1.8725 28.987 1.814 28.9143 1.8105 28.7758L1.808 28.5775C1.8065 28.0633 1.8045 27.5493 1.8045 27.035C1.8045 26.9603 1.8355 26.901 1.90125 26.8563C2.0405 26.7623 2.1875 26.6875 2.35025 26.6458C2.69325 26.558 2.99075 26.68 3.12275 26.9718C3.1645 27.0638 3.19725 27.1655 3.2065 27.2655C3.255 27.781 3.234 28.297 3.20475 28.8125C3.1985 28.9238 3.14625 28.9798 3.0365 29.007L2.7785 29.0615C2.75775 29.0668 2.7275 29.0528 2.726 29.07C2.72025 29.1413 2.7235 29.2505 2.7235 29.2505H2.785L3.5705 29.2763C3.78575 29.2758 4.00125 29.3018 4.21625 29.3073C4.25475 29.308 4.289 29.3138 4.29125 29.2693C4.29352 29.2002 4.2926 29.131 4.2885 29.062L4.2475 29.0548L4.02625 29.005C3.877 28.9698 3.8255 28.913 3.825 28.762C3.82325 28.3898 3.82825 28.0178 3.825 27.6458C3.82312 27.433 3.8152 27.2203 3.80125 27.008C3.7975 26.9515 3.80625 26.9145 3.85125 26.8828C3.98165 26.7874 4.1284 26.7166 4.28425 26.674C4.768 26.5465 5.164 26.8118 5.189 27.3105C5.2135 27.7915 5.20325 28.2743 5.1995 28.7563C5.19825 28.924 5.14275 28.9748 4.9775 29.0198L4.9205 29.0345C4.75125 29.075 4.75275 29.075 4.76275 29.2548C4.766 29.311 4.7815 29.3255 4.8415 29.324C5.18625 29.3163 5.531 29.3143 5.87575 29.3113C6.01675 29.31 6.15775 29.3113 6.31125 29.3113L6.3425 29.0773C6.20775 29.0415 6.0835 29.015 5.9635 28.9758C5.8575 28.9398 5.82 28.8758 5.8205 28.7638ZM17.6928 26.7035C17.8348 26.5718 17.8358 26.3978 17.796 26.2045C17.6835 26.3223 17.5575 26.3765 17.4138 26.3868C17.221 26.4005 17.0318 26.3838 16.8523 26.307C16.3668 26.0985 15.8888 26.1133 15.4123 26.342C15.0115 26.534 14.765 26.8333 14.7403 27.287C14.7245 27.5778 14.779 27.853 14.973 28.0843C15.0893 28.2228 15.2385 28.3125 15.4068 28.3745C15.4793 28.4013 15.4848 28.4358 15.424 28.482C15.3791 28.5159 15.3327 28.5476 15.2848 28.577C15.1832 28.6409 15.081 28.7037 14.9783 28.7655C14.918 28.802 14.8975 28.8485 14.9173 28.9198C14.975 29.1293 15.1238 29.2503 15.3098 29.3385L15.3775 29.3858L15.3183 29.445C15.136 29.5928 14.9465 29.7323 14.772 29.889C14.6255 30.0208 14.5783 30.1973 14.6225 30.392C14.7118 30.7808 14.9695 31.0213 15.3353 31.1318C15.9745 31.3253 16.5748 31.2143 17.122 30.8355C17.4465 30.6108 17.6793 30.3183 17.75 29.9158C17.8293 29.4635 17.578 29.071 17.1283 28.99C16.8308 28.936 16.5263 28.9205 16.2253 28.886C16.0848 28.87 15.9423 28.8605 15.8055 28.8283C15.6893 28.8008 15.6315 28.706 15.6423 28.6135C15.653 28.5225 15.7498 28.4378 15.8605 28.429C16.0835 28.411 16.302 28.3763 16.5075 28.2823C17.052 28.0333 17.3048 27.5973 17.2415 27.0103C17.2333 26.9313 17.2153 26.8533 17.199 26.7613C17.3733 26.7905 17.5515 26.8348 17.6928 26.7035ZM16.0405 29.4578C16.262 29.4643 16.514 29.478 16.7575 29.5493C16.9718 29.6118 17.148 29.7213 17.2 29.9605C17.2628 30.2495 17.1238 30.537 16.844 30.6915C16.582 30.836 16.2975 30.848 16.009 30.8183C15.762 30.7928 15.5398 30.7073 15.3618 30.5248C15.1273 30.2845 15.126 29.952 15.3608 29.7125C15.5705 29.4985 15.6828 29.4543 16.0405 29.4578ZM16.5948 27.7173C16.4658 28.13 16.0903 28.187 15.796 28.055C15.5453 27.9428 15.436 27.7218 15.3788 27.4695C15.3565 27.3725 15.3513 27.2718 15.3383 27.1725C15.3435 27.0303 15.367 26.8938 15.4283 26.7658C15.616 26.3715 16.0773 26.395 16.3325 26.5735C16.442 26.65 16.5183 26.754 16.566 26.8773C16.6723 27.1456 16.6824 27.4424 16.5948 27.7173ZM14.2523 29.033C14.1629 29.0194 14.0747 28.9996 13.988 28.974C13.836 28.9275 13.8175 28.899 13.8158 28.7383C13.8113 28.2903 13.8083 27.8423 13.8033 27.3945C13.8008 27.193 13.7768 26.9943 13.715 26.8018C13.5525 26.2943 13.0548 26.0218 12.5568 26.1715C12.2808 26.2548 12.0438 26.4095 11.823 26.5913L11.7425 26.653L11.7428 26.5703C11.748 26.475 11.7583 26.3798 11.7575 26.2845C11.757 26.2348 11.738 26.1848 11.7288 26.141C11.5405 26.1978 11.3718 26.2548 11.1995 26.2983C11.0268 26.3418 10.8505 26.3713 10.6758 26.4068C10.589 26.4243 10.5253 26.4768 10.5268 26.5365C10.529 26.6208 10.5988 26.637 10.6598 26.6623C10.7703 26.7075 10.8805 26.7533 10.9898 26.8018C11.0678 26.8365 11.0995 26.901 11.0988 26.9848C11.0933 27.567 11.0898 28.1495 11.0813 28.732C11.0788 28.916 11.0323 28.9645 10.8513 29.005L10.7723 29.0208C10.6048 29.0495 10.6 29.0563 10.6115 29.233L10.6125 29.2623C10.6105 29.3303 10.6403 29.3523 10.7103 29.3515C11.1553 29.346 11.6003 29.344 12.0455 29.3455C12.2363 29.3463 12.2568 29.3313 12.2528 29.1353L12.2438 29.051C12.1348 29.0328 12.0305 29.0195 11.9285 28.997C11.8218 28.9733 11.7835 28.9295 11.7735 28.821C11.7643 28.7218 11.7613 28.621 11.7603 28.521C11.7553 28.0632 11.7515 27.6055 11.749 27.148C11.7485 27.0328 11.7698 26.9258 11.8758 26.8515C12.0318 26.74 12.2157 26.6741 12.407 26.661C12.804 26.6338 13.1058 26.869 13.1273 27.2648C13.1538 27.753 13.1458 28.243 13.152 28.7323C13.1525 28.7688 13.146 28.8055 13.141 28.8418C13.1315 28.9133 13.0965 28.967 13.024 28.9855C12.9533 29.004 12.8815 29.0205 12.8093 29.0315C12.7015 29.0475 12.6993 29.0468 12.691 29.1555L12.6938 29.2288C12.7065 29.3553 12.7068 29.3515 12.8348 29.3503C13.2653 29.3466 13.6956 29.3449 14.1258 29.345C14.3058 29.3455 14.3185 29.337 14.32 29.1515L14.3195 29.1075C14.3223 29.06 14.301 29.0408 14.2523 29.033ZM20.2653 26.2023C19.814 26.092 19.386 26.174 18.9795 26.3843C18.5845 26.5885 18.3205 26.9043 18.22 27.3403C18.1185 27.781 18.167 28.211 18.3618 28.6203C18.4885 28.886 18.6835 29.0915 18.949 29.225C19.5705 29.538 20.3308 29.396 20.8183 28.9773C21.203 28.647 21.3443 28.2073 21.3528 27.663C21.3475 27.6085 21.3423 27.5035 21.3278 27.3995C21.246 26.807 20.8358 26.3418 20.2653 26.2023ZM20.607 28.491C20.4873 28.9625 20.0795 29.172 19.6195 29.01C19.3848 28.9275 19.2093 28.7698 19.0913 28.5565C18.8198 28.0665 18.7675 27.5455 18.922 27.011C19.025 26.655 19.318 26.4603 19.6665 26.4848C19.978 26.5065 20.2175 26.656 20.3933 26.9095C20.5785 27.177 20.65 27.4813 20.669 27.8008C20.6723 27.852 20.6695 27.9033 20.6695 27.9548L20.6915 27.9573C20.664 28.1355 20.651 28.3173 20.607 28.491ZM8.91601 26.1945C8.44126 26.086 7.9965 26.1933 7.5845 26.4345C7.22825 26.643 6.998 26.9545 6.90975 27.3615C6.827 27.7418 6.86075 28.1155 6.9955 28.4798C7.0775 28.7018 7.20175 28.897 7.384 29.0493C7.76775 29.3695 8.21625 29.4505 8.6935 29.3613C9.0975 29.2855 9.4525 29.106 9.7105 28.7703C9.952 28.4563 10.044 28.0958 10.0535 27.705C10.0393 27.5813 10.0358 27.4553 10.0095 27.3345C9.879 26.7318 9.52651 26.3338 8.91601 26.1945ZM9.30326 28.4895C9.1875 28.9585 8.77325 29.1733 8.3165 29.0113C8.02325 28.907 7.83225 28.6923 7.7115 28.417C7.518 27.9748 7.4785 27.5145 7.60375 27.048C7.69975 26.6913 7.989 26.4285 8.43175 26.4915C8.7035 26.53 8.9155 26.6688 9.0735 26.8895C9.287 27.1873 9.35725 27.5283 9.367 27.8865V27.9598L9.385 27.9625C9.35876 28.1385 9.34575 28.3175 9.30326 28.4895Z" fill="black"/>
</svg>
