<svg width="32" height="32" viewBox="0 0 32 32" fill="none" xmlns="http://www.w3.org/2000/svg">
<path d="M0 12.7745V19.215H1.1055V14.151L5.1825 19.2175H12.106V18.1893H7.63825V16.489H11.2308V15.4608H7.63825V13.8055H12.1058V12.7765H6.5325V13.8055H6.533V19.17L1.38175 12.7745H0ZM21.2725 12.777V13.8058H23.53V19.2183H24.635V13.8058H26.8468V12.7768H21.2725V12.777ZM13.442 12.7798L18.6245 19.2208H20.0753L17.484 16.0025L20.0715 12.7848L18.624 12.7873L16.7593 15.1025L14.8892 12.78H13.4417L13.442 12.7798ZM30.9815 16.4293C30.7913 16.4293 30.6203 16.4613 30.4688 16.5278C30.3181 16.5936 30.1992 16.6859 30.1122 16.8048C30.0247 16.9239 29.981 17.0626 29.981 17.2208C29.9807 17.4131 30.0457 17.567 30.176 17.6825C30.3055 17.7985 30.4825 17.8848 30.707 17.9415L31.017 18.0195C31.1045 18.0407 31.1903 18.0686 31.2735 18.103C31.3382 18.1285 31.3965 18.1678 31.4443 18.2183C31.4858 18.2667 31.5079 18.3287 31.5063 18.3925C31.5069 18.4656 31.4818 18.5367 31.4355 18.5933C31.3852 18.654 31.3196 18.7001 31.2455 18.727C31.155 18.7605 31.059 18.7768 30.9625 18.775C30.8675 18.7765 30.7731 18.7611 30.6835 18.7295C30.6055 18.7014 30.5362 18.6534 30.4825 18.5903C30.4296 18.5237 30.3988 18.4424 30.3945 18.3575H29.9093C29.9159 18.5353 29.9631 18.6863 30.0508 18.8105C30.1823 18.9968 30.2598 19.0288 30.4158 19.093C30.5708 19.158 30.755 19.1905 30.9662 19.1905C31.1849 19.1902 31.371 19.1568 31.5245 19.0905C31.6787 19.023 31.7965 18.9298 31.878 18.811C31.9598 18.6913 32 18.554 32 18.3965C31.9998 18.2798 31.9777 18.1784 31.9335 18.0923C31.89 18.0063 31.8286 17.9307 31.7535 17.8705C31.6755 17.8079 31.589 17.7568 31.4965 17.7188C31.4004 17.6779 31.3008 17.6456 31.199 17.6225L30.944 17.56C30.8876 17.5465 30.832 17.5303 30.7773 17.5113C30.7249 17.4935 30.6748 17.4696 30.628 17.44C30.5845 17.414 30.5477 17.3782 30.5205 17.3355C30.4933 17.2921 30.4796 17.2417 30.481 17.1905C30.481 17.1259 30.5019 17.063 30.5405 17.0113C30.5795 16.9588 30.6367 16.9173 30.71 16.8863C30.7942 16.8541 30.8839 16.8384 30.974 16.8403C31.1203 16.8401 31.2395 16.872 31.3315 16.936C31.376 16.9659 31.4131 17.0056 31.4401 17.0519C31.467 17.0982 31.4832 17.1501 31.4872 17.2035H31.9622C31.9618 17.0596 31.917 16.9193 31.834 16.8018C31.7507 16.6851 31.6359 16.5938 31.4897 16.5278C31.3439 16.4618 31.1745 16.4289 30.9815 16.4293ZM28.982 16.4653V18.3528C28.9812 18.4473 28.9665 18.5268 28.938 18.5913C28.9123 18.6521 28.868 18.7032 28.8115 18.7373C28.7567 18.7706 28.6898 18.7873 28.6108 18.7873C28.5384 18.7873 28.4742 18.7731 28.418 18.7448C28.3638 18.7181 28.3185 18.6764 28.2875 18.6245C28.2551 18.5674 28.2383 18.5027 28.2388 18.437H27.748C27.7477 18.6023 27.7849 18.7403 27.8598 18.851C27.9344 18.962 28.0395 19.049 28.1625 19.1015C28.2983 19.1598 28.4448 19.1887 28.5925 19.1865C28.767 19.1865 28.9199 19.1532 29.0513 19.0865C29.1799 19.0226 29.2872 18.9229 29.3603 18.7993C29.4336 18.6748 29.4709 18.5258 29.4722 18.3525V16.4653H28.982ZM15.649 16.48L13.438 19.2255H14.8892L16.3735 17.3805L15.649 16.48ZM27.0952 18.6045C27.0142 18.6045 26.9451 18.6325 26.8878 18.6885C26.86 18.7141 26.8379 18.7454 26.8231 18.7802C26.8083 18.8149 26.801 18.8525 26.8018 18.8903C26.8008 18.9285 26.808 18.9665 26.8228 19.0017C26.8376 19.037 26.8598 19.0687 26.8878 19.0948C26.9451 19.1509 27.0142 19.1789 27.0952 19.1788C27.1458 19.1792 27.1954 19.1657 27.2388 19.1398C27.2826 19.1147 27.3194 19.0789 27.3458 19.0358C27.3729 18.9921 27.3873 18.9417 27.3873 18.8903C27.3872 18.8523 27.3793 18.8148 27.3641 18.7801C27.3489 18.7454 27.3266 18.7142 27.2987 18.6885C27.2722 18.6616 27.2405 18.6403 27.2055 18.6259C27.1706 18.6114 27.1331 18.6042 27.0952 18.6045Z" fill="black" fill-opacity="0.7"/>
</svg>
