<svg width="32" height="32" viewBox="0 0 32 32" fill="none" xmlns="http://www.w3.org/2000/svg">
<path d="M18.1615 29.8572C18.7294 29.4516 19.5409 28.8024 19.9871 28.3967C27.7656 31.4869 30.3034 25.4471 30.1007 23.1419C29.8764 20.5894 26.7071 13.305 15.9302 13.3048C15.4235 14.4925 13.9417 15.0883 12.7161 14.3784C11.2119 13.5071 11.2119 11.3173 12.7161 10.4461C13.8845 9.76926 15.2855 10.2794 15.8528 11.3574C22.3956 11.3242 29.7307 14.1031 31.7818 21.8356C33.2612 27.4121 27.0547 33.9131 18.1615 29.8572ZM22.1869 21.9701C23.2694 21.8426 24.2077 20.9391 24.2077 19.7148C24.2077 17.9724 22.3074 16.8774 20.7953 17.7487C19.4689 18.5129 19.3064 20.2918 20.3072 21.3052C16.717 27.9988 8.69881 30.616 4.46756 28.0755C2.12444 26.6686 -0.291814 21.6323 5.34144 16.9966C5.17912 16.4693 4.93569 15.5767 4.814 14.9276C-5.31394 22.5598 1.97656 34.7041 13.396 29.9748C16.4834 28.6961 19.8309 26.4614 22.1868 21.9701M9.83656 24.5614C11.3507 25.4326 13.2537 24.3376 13.2537 22.5953C13.2537 21.1411 11.9284 20.139 10.6098 20.3532C2.23394 4.70782 19.8686 -4.58311 22.1373 10.2215L24.1658 10.8301C22.6908 -1.0788 13.7866 0.0108854 10.9341 2.42282C8.79631 4.23051 3.08131 10.5913 8.98581 21.487C8.41687 22.5114 8.70037 23.9076 9.83656 24.5614Z" fill="black"/>
</svg>
