<svg width="32" height="32" viewBox="0 0 32 32" fill="none" xmlns="http://www.w3.org/2000/svg">
<path d="M5.45 7.97501C6.65 8.55001 13.35 11.25 14.4 11.75C15.45 12.25 16.2 12.25 17.55 11.575C18.875 10.875 25.175 8.30001 26.375 7.67501C27 7.35001 27.275 7.10001 27.275 6.87501V4.60001C27.275 4.37501 26.975 4.17501 26.375 3.95001L17.75 0.60001C16.55 0.15001 16.075 0.17501 14.675 0.67501C13.25 1.17501 6.6 3.80001 5.425 4.25001C4.85 4.47501 4.525 4.70001 4.525 4.92501H4.5V7.20001C4.5 7.45001 4.85 7.70001 5.45 7.97501ZM16.35 8.30001L12.675 6.77501L17.95 5.97501L16.35 8.30001ZM24.325 4.67501L21.2 5.90001L20.875 6.02501L17.775 4.80001L21.225 3.42501L24.325 4.67501ZM15.2 2.42501L14.7 1.47501L16.275 2.10001L17.775 1.60001L17.375 2.57501L18.9 3.15001L16.925 3.35001L16.475 4.40001L15.775 3.25001L13.5 3.05001L15.2 2.42501ZM11.275 3.75001C12.825 3.75001 14.1 4.25001 14.1 4.85001C14.1 5.45001 12.85 5.95001 11.275 5.95001C9.725 5.95001 8.45 5.45001 8.45 4.85001C8.45 4.25001 9.725 3.75001 11.275 3.75001ZM5.45 11.875C6.65 12.45 13.35 15.15 14.4 15.65C15.45 16.15 16.2 16.15 17.55 15.475C18.875 14.775 25.175 12.2 26.375 11.575C27 11.25 27.275 11 27.275 10.775V8.50001C27.275 8.72501 26.975 8.95001 26.4 9.27501C25.2 9.90001 18.9 12.5 17.575 13.175C16.25 13.875 15.5 13.875 14.45 13.35C13.4 12.85 6.675 10.15 5.475 9.57501C4.875 9.30001 4.525 9.05001 4.525 8.82501V11.125C4.5 11.35 4.85 11.575 5.45 11.875ZM5.45 15.625C6.65 16.2 13.35 18.9 14.4 19.4C15.45 19.9 16.2 19.9 17.55 19.225C18.875 18.525 25.175 15.95 26.375 15.325C27 15 27.275 14.75 27.275 14.525V12.25C27.275 12.475 26.975 12.7 26.4 13.025C25.2 13.65 18.9 16.25 17.575 16.925C16.25 17.625 15.5 17.625 14.45 17.1C13.4 16.6 6.675 13.9 5.475 13.325C4.875 13.05 4.525 12.8 4.525 12.575V14.875C4.5 15.075 4.85 15.325 5.45 15.625ZM5.35 24.4C5.35 23.925 4.975 23.55 4.475 23.55C3.65 23.525 2.925 23.825 2.375 24.2C2.25 24.25 2.25 24.4 2 24.5V24.375C2 23.9 1.6 23.525 1.1 23.525C0.625 23.525 0.25 23.9 0.25 24.375V30.85C0.25 31.325 0.625 31.725 1.1 31.725C1.6 31.725 2 31.325 2 30.85V27.75C2.25 27.525 2.3 26.9 2.7 26.375C2.9 26.05 3.15 25.775 3.475 25.575C3.75 25.35 4.1 25.25 4.475 25.25C4.975 25.275 5.35 24.85 5.35 24.4ZM8.825 23.525C6.575 23.525 4.85 25.4 4.825 27.65C4.85 29.9 6.6 31.75 8.85 31.775C10.025 31.775 11 31.425 11.8 30.7C12.175 30.35 12.025 29.85 11.8 29.625C11.575 29.35 10.925 29.3 10.575 29.675C10.175 30 9.45 30.125 8.875 30.075C8.3 30.025 7.65 29.75 7.3 29.35C7 29.075 6.825 28.525 6.75 28.275H11.975C12.425 28.275 12.725 28 12.775 27.6C12.8 27.575 12.75 27.475 12.75 27.45V27.375C12.75 25.125 10.975 23.525 8.825 23.525ZM6.65 26.75C6.775 26.25 7.475 25.075 8.875 25C10.3 25.125 11.15 26.25 11.3 26.75H6.65ZM21.25 27.65V21.125C21.25 20.65 20.875 20.225 20.375 20.225C19.875 20.225 19.5 20.625 19.5 21.125V24.225C18.75 23.8 18.075 23.525 17.275 23.525C15.05 23.525 13.25 25.4 13.25 27.65C13.25 29.875 15.025 31.75 17.25 31.75C18.075 31.75 18.85 31.475 19.475 31.05C19.55 31.45 19.9 31.75 20.35 31.75C20.85 31.75 21.25 31.35 21.25 30.85V27.65ZM18.775 29.275C18.375 29.7 17.825 29.95 17.225 29.95C16.625 29.95 16.1 29.7 15.675 29.275C15.275 28.875 15.025 28.275 15.025 27.65C15.025 27 15.275 26.4 15.675 26C16.075 25.575 16.625 25.325 17.225 25.325C17.825 25.325 18.35 25.575 18.775 26C19.175 26.4 19.425 27 19.425 27.65C19.45 28.275 19.2 28.875 18.775 29.275ZM23.375 20.225C22.875 20.225 22.5 20.625 22.5 21.125V21.475C22.5 21.975 22.875 22.375 23.375 22.375C23.875 22.375 24.25 21.975 24.25 21.475V21.125C24.25 20.625 23.875 20.225 23.375 20.225ZM23.375 23.525C22.875 23.525 22.5 23.9 22.5 24.425V30.85C22.5 31.35 22.875 31.75 23.375 31.75C23.875 31.75 24.25 31.35 24.25 30.85V24.45C24.25 23.925 23.875 23.525 23.375 23.525ZM31.4 28.1C31.125 27.65 30.675 27.375 30.225 27.175C29.75 26.95 29.25 26.75 28.7 26.75H28.675L28.65 26.675C28.1 26.575 27.675 26.4 27.45 26.25C27.325 26.175 27.275 26.1 27.275 26.075C27.25 26.025 27.25 26 27.25 25.925C27.25 25.85 27.3 25.7 27.525 25.55C27.75 25.375 28.1 25.25 28.525 25.25C29.05 25.25 29.525 25.525 30.05 25.85C30.45 26.125 31 26.025 31.275 25.625C31.525 25.225 31.4 24.675 31 24.4C30.475 24.05 29.675 23.5 28.525 23.5C27.775 23.5 27.075 23.725 26.5 24.1C25.95 24.5 25.525 25.15 25.525 25.9C25.525 26.275 25.625 26.65 25.8 26.925C26.1 27.375 26.5 27.6 26.925 27.825C27.35 28.025 27.85 28.2 28.35 28.2H28.375C28.975 28.45 29.45 28.55 29.7 28.725C29.825 28.8 29.9 28.9 29.925 28.95C29.95 29 29.975 29.05 29.975 29.125C29.975 29.25 29.9 29.425 29.675 29.625C29.4 29.8 29 29.95 28.55 29.95C27.9 29.975 27.175 29.6 26.75 29.225C26.4 28.9 25.8 28.975 25.525 29.35C25.225 29.7 25.275 30.275 25.65 30.575C26.3 31.1 27.3 31.7 28.575 31.7C29.375 31.7 30.125 31.45 30.725 31.05C31.325 30.625 31.75 29.95 31.75 29.15C31.725 28.8 31.6 28.425 31.4 28.1Z" fill="black"/>
</svg>
