<svg width="32" height="32" viewBox="0 0 32 32" fill="none" xmlns="http://www.w3.org/2000/svg">
<path d="M19.8666 6.8C19.8666 6.8 19.5999 6.88 19.1466 7.02667C19.0666 6.78667 18.9599 6.48 18.7999 6.18667C18.2932 5.21333 17.5466 4.70667 16.6399 4.69333C16.5732 4.69333 16.5199 4.69333 16.4532 4.70667C16.4266 4.68 16.3999 4.64 16.3732 4.61333C15.9866 4.18667 15.4799 3.98667 14.8799 4C13.7199 4.04 12.5599 4.88 11.6132 6.37333C10.9466 7.42667 10.4532 8.74667 10.3066 9.76C8.97324 10.1733 8.0399 10.4667 8.01324 10.4667C7.33324 10.68 7.3199 10.7067 7.22657 11.3333C7.1599 11.8133 5.3999 25.4667 5.3999 25.4667L20.0399 28V6.77333C19.9732 6.77333 19.9066 6.78667 19.8666 6.8ZM16.4799 7.85333C15.7066 8.09333 14.8532 8.36 14.0132 8.61333C14.2532 7.69333 14.7066 6.78667 15.2666 6.18667C15.4799 5.96 15.7599 5.72 16.1066 5.57333C16.4266 6.25333 16.4932 7.2 16.4799 7.85333ZM14.8932 4.77333C15.1599 4.77333 15.3999 4.82667 15.5999 4.96C15.2799 5.12 14.9866 5.36 14.6932 5.66667C13.9599 6.45333 13.3866 7.69333 13.1599 8.88C12.4532 9.09333 11.7732 9.30667 11.1332 9.50667C11.5332 7.62667 13.1066 4.82667 14.8932 4.77333ZM12.6266 15.4267C12.7066 16.6667 15.9866 16.9467 16.1732 19.8667C16.3199 22.16 14.9599 23.7333 12.9866 23.8533C10.6399 24 9.33324 22.6133 9.33324 22.6133L9.82657 20.4933C9.82657 20.4933 11.1332 21.48 12.1732 21.4133C12.8532 21.3733 13.0932 20.8133 13.0799 20.4267C12.9732 18.8 10.3066 18.8933 10.1466 16.2267C9.9999 13.9733 11.4799 11.7067 14.7332 11.4933C15.9999 11.4133 16.6399 11.7333 16.6399 11.7333L15.8932 14.52C15.8932 14.52 15.0666 14.1467 14.0799 14.2C12.6399 14.2933 12.6132 15.2 12.6266 15.4267ZM17.2532 7.61333C17.2399 7.02667 17.1732 6.2 16.8932 5.49333C17.7732 5.66667 18.2132 6.65333 18.3999 7.25333C18.0666 7.36 17.6799 7.48 17.2532 7.61333ZM20.5199 27.9467L26.5999 26.44C26.5999 26.44 23.9866 8.76 23.9732 8.64C23.9599 8.52 23.8532 8.45333 23.7599 8.44C23.6666 8.42667 21.9599 8.4 21.9599 8.4C21.9599 8.4 20.9199 7.38667 20.5199 7V27.9467Z" fill="black"/>
</svg>
