<svg width="16" height="16" viewBox="0 0 16 16" fill="none" xmlns="http://www.w3.org/2000/svg">
<path d="M11.6764 9.04838H9.76211V14.9779H8.70789V9.04838H6.79761V8.06782H11.6764L11.6764 9.04838ZM15.8555 12.4543C15.1893 11.1123 13.6062 11.0289 13.1458 10.1815C12.6371 8.80891 14.7348 8.56091 15.7427 9.48563V8.25354C15.3132 7.97622 14.6305 7.94641 14.1515 7.97229C12.8874 8.04054 12.038 8.775 12.0506 9.8691C11.9962 11.3963 13.7401 11.7896 14.6159 12.4963C15.2106 13.001 15.168 14.2249 13.6988 14.1026C13.2285 14.0594 12.6248 13.9684 12.0415 13.3313V14.642C13.1132 15.3386 14.9564 15.2107 15.599 14.3734C15.9809 13.8758 16.1383 13.2092 15.8555 12.4543Z" fill="black"/>
<path d="M5.59124 12.4337L6.13717 14.3295H7.78302V10.4875C7.00427 10.7582 6.10864 10.7179 5.29739 10.2502C3.29292 9.09453 3.29292 6.18987 5.29739 5.03431C7.11989 3.98359 9.36771 5.089 9.76077 7.03556H11.7135C11.6374 6.40337 11.444 5.81884 11.16 5.29681L12.267 3.33103L11.1636 2.22766L9.21639 3.34028C8.90283 3.16469 8.57144 3.02306 8.22783 2.91778L7.63899 0.787155H6.07586L5.50367 2.87403C5.13767 2.97466 4.77483 3.12066 4.42108 3.31534L2.56658 2.27362L1.46321 3.377L2.49227 5.21678C2.29842 5.56356 2.14986 5.93016 2.04599 6.30734L0.0227051 6.90162V8.46475L2.05686 9.01728C2.16436 9.39557 2.31703 9.75954 2.51158 10.1013L1.50917 11.9741L2.61255 13.0774L4.46661 11.9943C4.8343 12.1919 5.21124 12.3367 5.59124 12.4337Z" fill="black"/>
</svg>
